# xmcd
#
# Track frame offsets: 
#        150
#        37794
#        64843
#        77007
#        96721
#        116423
#        138115
#        184039
#        205332
#        240056
#        258610
#        278196
#        295889
#        316858
#        333586
#
# Disc length: 4707 seconds
#
# Revision: 3
# Processed by: cddbd v1.5.2PL0 Copyright (c) Steve Scherf et al.
# Submitted via: ExactAudioCopy v1.0b3
#
DISCID=d412610f
DTITLE=Various Artist - Time Blues  Vol. 11
DYEAR=2008
DGENRE=Blues
TTITLE0=Matt O'Ree and The Blues Hoonds - Something To Say
TTITLE1=Nobody Reed Project - Praying The Blues
TTITLE2=Micky Moody and Paul Williams - Who's Been Talkin'
TTITLE3=Volker Klenner and His Boston Bluesfriend - Remembering Curtis
TTITLE4=Jimmy "O" - Trouble On 2 Legs
TTITLE5=Susan Tedeschi - Wait For Me
TTITLE6=Brayan Lee - Six String Therapy
TTITLE7=Nico Wayne Toussaint - I Was Wrong
TTITLE8=Jimmy Burns - Leaving Here Walking
TTITLE9=Rob Rio and The Revolvers - I Want To Be Seduced
TTITLE10=Patric Vining - Lonesome Blues
TTITLE11=The Decoys - Good Days Bad Days
TTITLE12=Reggie Wayne Morris - Blues Binge
TTITLE13=King Ernest - I'm Not The One
TTITLE14=Oscar Perry - Woman's Got To Have It
EXTD=
EXTT0=
EXTT1=
EXTT2=
EXTT3=
EXTT4=
EXTT5=
EXTT6=
EXTT7=
EXTT8=
EXTT9=
EXTT10=
EXTT11=
EXTT12=
EXTT13=
EXTT14=
PLAYORDER=
